<svg width="174" height="222" viewBox="0 0 174 222" fill="none" xmlns="http://www.w3.org/2000/svg">
<path d="M0 98.8281C0 92.0549 2.74818 85.5717 7.61568 80.8618L55.6802 34.3541C75.357 15.3145 106.687 15.6423 125.962 35.0894L165.204 74.6838C169.208 78.7235 167.916 85.5226 162.71 87.8129V87.8129C159.615 89.1745 156 88.4725 153.64 86.0515L115.806 47.2475C102.239 33.332 79.9317 33.1353 66.1208 46.8094L20.3177 92.159C17.9466 94.5067 16.6125 97.7049 16.6125 101.042L16.6125 193.495C16.6125 200.399 22.2089 205.995 29.1125 205.995H135.167C142.07 205.995 147.667 200.399 147.667 193.495V120.287C147.667 117.014 146.383 113.871 144.091 111.534L101.551 68.1598C95.8036 62.3 86.4141 62.1474 80.4796 67.8173L42.6857 103.926C38.3995 108.021 31.2951 106.074 29.6965 100.365V100.365C28.9144 97.5721 29.7352 94.5754 31.8313 92.5707L73.4248 52.7932C83.2821 43.3662 98.8761 43.58 108.471 53.2736L155.939 101.228C160.573 105.909 163.172 112.229 163.172 118.816V196.5C163.172 210.307 151.979 221.5 138.172 221.5H25C11.1928 221.5 0 210.307 0 196.5L0 98.8281Z" fill="#F9F9F9"/>
<circle cx="40.9775" cy="104.105" r="14.3975" fill="#F9F9F9"/>
<path d="M44.8414 126.467C53.2786 127.423 60.8938 121.359 61.8505 112.922L61.9899 111.692C62.3345 108.653 65.0773 106.469 68.1161 106.814C71.1549 107.158 73.339 109.901 72.9944 112.94L72.9385 113.433C71.2465 128.355 57.6735 139.068 42.7519 137.376C39.7131 137.031 37.5076 134.286 37.8522 131.247C38.1968 128.208 40.9395 126.024 43.9783 126.369L44.8414 126.467Z" fill="#F9F9F9"/>
<path d="M42.4069 146.996C62.0445 149.223 79.769 135.109 81.9957 115.471L82.1648 113.98C82.5094 110.941 85.2709 108.759 88.3097 109.103C91.3279 109.446 93.5158 112.172 93.1735 115.19L93.0988 115.849C90.1285 142.045 66.4847 160.872 40.289 157.902C37.3122 157.565 35.1727 154.878 35.5102 151.901L35.523 151.789C35.8675 148.75 38.6103 146.566 41.6491 146.91L42.4069 146.996Z" fill="#F9F9F9"/>
<path d="M39.0813 168.168C70.9733 171.784 99.7583 148.862 103.375 116.97L103.451 116.299C103.789 113.312 106.486 111.164 109.473 111.503L109.646 111.523C112.641 111.862 114.788 114.615 114.448 117.61C110.144 155.567 75.8132 183.479 37.856 179.175C34.8906 178.839 32.7592 176.162 33.0955 173.197L33.1282 172.909C33.463 169.956 36.1283 167.833 39.0813 168.168Z" fill="#F9F9F9"/>
</svg>
