<svg xmlns="http://www.w3.org/2000/svg" xmlns:xlink="http://www.w3.org/1999/xlink" xmlns:lucid="lucid" width="1569" height="793"><g transform="translate(-1596 -1061)" lucid:page-tab-id="ZacJzwXg47t9"><path d="M2415.9 1000h240v60h-240z" fill="none"/><use xlink:href="#a" transform="matrix(1,0,0,1,2415.915352192566,1000) translate(53.87654320987657 37.11111111111111)"/><path d="M2446.73 1117.25a6 6 0 0 1 6-6h205a6 6 0 0 1 6 6v223a6 6 0 0 1-6 6h-205a6 6 0 0 1-6-6z" stroke="#5e5e5e" stroke-width="3" fill="#fff"/><path d="M2446.73 1153.92h217m-217 69.33h217" stroke="#5e5e5e" stroke-width="3" fill="none"/><use xlink:href="#b" transform="matrix(1,0,0,1,2454.73228061371,1119.2529260581261) translate(15.438271604938265 17.944444444444443)"/><use xlink:href="#c" transform="matrix(1,0,0,1,2458.73228061371,1161.919592724793) translate(0 18.111111111111114)"/><use xlink:href="#d" transform="matrix(1,0,0,1,2458.73228061371,1161.919592724793) translate(18.51851851851852 18.111111111111114)"/><use xlink:href="#c" transform="matrix(1,0,0,1,2458.73228061371,1161.919592724793) translate(0 44.777777777777786)"/><use xlink:href="#e" transform="matrix(1,0,0,1,2458.73228061371,1161.919592724793) translate(18.51851851851852 44.777777777777786)"/><use xlink:href="#f" transform="matrix(1,0,0,1,2458.73228061371,1231.2529260581261) translate(0 17.94444444444445)"/><use xlink:href="#g" transform="matrix(1,0,0,1,2458.73228061371,1231.2529260581261) translate(19.1358024691358 17.94444444444445)"/><use xlink:href="#f" transform="matrix(1,0,0,1,2458.73228061371,1231.2529260581261) translate(0 44.611111111111114)"/><use xlink:href="#h" transform="matrix(1,0,0,1,2458.73228061371,1231.2529260581261) translate(19.1358024691358 44.611111111111114)"/><use xlink:href="#i" transform="matrix(1,0,0,1,2458.73228061371,1231.2529260581261) translate(0 71.27777777777779)"/><use xlink:href="#j" transform="matrix(1,0,0,1,2458.73228061371,1231.2529260581261) translate(19.1358024691358 71.27777777777779)"/><use xlink:href="#i" transform="matrix(1,0,0,1,2458.73228061371,1231.2529260581261) translate(0 97.94444444444446)"/><use xlink:href="#k" transform="matrix(1,0,0,1,2458.73228061371,1231.2529260581261) translate(19.1358024691358 97.94444444444446)"/><path d="M2190.96 1384.6v-149.85a6 6 0 0 1 6-6h246.45" stroke="#5e5e5e" stroke-width="2" fill="none"/><path d="M2190.96 1413.92l-14.85-14.85 14.86-15.15 14.85 15.15z" stroke="#5e5e5e" stroke-width="2" fill="#fff"/><path d="M2426.05 1238.93l17.22-10.18-17.22-10.18" stroke="#5e5e5e" stroke-width="2" fill="none"/><use xlink:href="#l" transform="matrix(1,0,0,1,2214.964291817277,1375.0388814606188) translate(0 14.4)"/><use xlink:href="#m" transform="matrix(1,0,0,1,2421.7065209010434,1192.9720977431186) translate(0 14.4)"/><path d="M2692.72 1607.84v-31.5a6 6 0 0 1 6-6h128.65a6 6 0 0 0 6-6v-8.02" stroke="#5e5e5e" stroke-width="2" fill="none"/><path d="M2693.72 1608.84h-2v-1.03h2z" stroke="#5e5e5e" stroke-width=".05" fill="#5e5e5e"/><path d="M2833.37 1533.8l12.72 21.52h-25.46z" stroke="#5e5e5e" stroke-width="2" fill="#fff"/><path d="M2555.33 1616.34a6 6 0 0 1 6-6h262.77a6 6 0 0 1 6 6v223a6 6 0 0 1-6 6h-262.77a6 6 0 0 1-6-6z" stroke="#5e5e5e" stroke-width="3" fill="#fff"/><path d="M2555.33 1653h274.77m-274.77 42.67h274.77" stroke="#5e5e5e" stroke-width="3" fill="none"/><use xlink:href="#n" transform="matrix(1,0,0,1,2563.333333333333,1618.3352840387508) translate(-4.018518518518476 17.944444444444443)"/><use xlink:href="#o" transform="matrix(1,0,0,1,2567.333333333333,1661.0019507054176) translate(0 17.944444444444443)"/><use xlink:href="#p" transform="matrix(1,0,0,1,2567.333333333333,1661.0019507054176) translate(13.518518518518519 17.944444444444443)"/><use xlink:href="#q" transform="matrix(1,0,0,1,2567.333333333333,1661.0019507054176) translate(77.5925925925926 17.944444444444443)"/><use xlink:href="#f" transform="matrix(1,0,0,1,2567.333333333333,1703.6686173720843) translate(0 18.111111111111107)"/><use xlink:href="#r" transform="matrix(1,0,0,1,2567.333333333333,1703.6686173720843) translate(19.1358024691358 18.111111111111107)"/><use xlink:href="#f" transform="matrix(1,0,0,1,2567.333333333333,1703.6686173720843) translate(0 44.77777777777777)"/><use xlink:href="#s" transform="matrix(1,0,0,1,2567.333333333333,1703.6686173720843) translate(19.1358024691358 44.77777777777777)"/><use xlink:href="#t" transform="matrix(1,0,0,1,2567.333333333333,1703.6686173720843) translate(0 71.44444444444444)"/><use xlink:href="#u" transform="matrix(1,0,0,1,2567.333333333333,1703.6686173720843) translate(19.1358024691358 71.44444444444444)"/><use xlink:href="#t" transform="matrix(1,0,0,1,2567.333333333333,1703.6686173720843) translate(0 98.11111111111111)"/><use xlink:href="#v" transform="matrix(1,0,0,1,2567.333333333333,1703.6686173720843) translate(19.1358024691358 98.11111111111111)"/><use xlink:href="#t" transform="matrix(1,0,0,1,2567.333333333333,1703.6686173720843) translate(0 124.77777777777777)"/><use xlink:href="#w" transform="matrix(1,0,0,1,2567.333333333333,1703.6686173720843) translate(19.1358024691358 124.77777777777777)"/><path d="M2280 1408.34a6 6 0 0 1 6-6h248a6 6 0 0 1 6 6v196a6 6 0 0 1-6 6h-248a6 6 0 0 1-6-6z" stroke="#5e5e5e" stroke-width="3" fill="#fff"/><path d="M2280 1445h260m-260 42.67h260" stroke="#5e5e5e" stroke-width="3" fill="none"/><use xlink:href="#x" transform="matrix(1,0,0,1,2288,1410.3352840387508) translate(-5.530864197530818 17.944444444444443)"/><use xlink:href="#o" transform="matrix(1,0,0,1,2292,1453.0019507054176) translate(0 17.944444444444443)"/><use xlink:href="#p" transform="matrix(1,0,0,1,2292,1453.0019507054176) translate(13.518518518518519 17.944444444444443)"/><use xlink:href="#q" transform="matrix(1,0,0,1,2292,1453.0019507054176) translate(77.5925925925926 17.944444444444443)"/><use xlink:href="#f" transform="matrix(1,0,0,1,2292,1495.6686173720843) translate(0 17.94444444444445)"/><use xlink:href="#r" transform="matrix(1,0,0,1,2292,1495.6686173720843) translate(19.1358024691358 17.94444444444445)"/><use xlink:href="#f" transform="matrix(1,0,0,1,2292,1495.6686173720843) translate(0 44.611111111111114)"/><use xlink:href="#s" transform="matrix(1,0,0,1,2292,1495.6686173720843) translate(19.1358024691358 44.611111111111114)"/><use xlink:href="#t" transform="matrix(1,0,0,1,2292,1495.6686173720843) translate(0 71.27777777777779)"/><use xlink:href="#u" transform="matrix(1,0,0,1,2292,1495.6686173720843) translate(19.1358024691358 71.27777777777779)"/><use xlink:href="#t" transform="matrix(1,0,0,1,2292,1495.6686173720843) translate(0 97.94444444444446)"/><use xlink:href="#y" transform="matrix(1,0,0,1,2292,1495.6686173720843) translate(19.1358024691358 97.94444444444446)"/><path d="M2410 1399.84v-6.1a6 6 0 0 1 6-6h133.23a6 6 0 0 0 6-6v-9.5" stroke="#5e5e5e" stroke-width="2" fill="none"/><path d="M2411 1400.84h-2v-1.03h2z" stroke="#5e5e5e" stroke-width=".05" fill="#5e5e5e"/><path d="M2555.23 1349.72l12.73 21.52h-25.45z" stroke="#5e5e5e" stroke-width="2" fill="#fff"/><path d="M1935.9 1422.84a6 6 0 0 1 6-6h308a6 6 0 0 1 6 6v169a6 6 0 0 1-6 6h-308a6 6 0 0 1-6-6z" stroke="#5e5e5e" stroke-width="3" fill="#fff"/><path d="M1935.9 1459.5h320m-320 42.1h320" stroke="#5e5e5e" stroke-width="3" fill="none"/><use xlink:href="#z" transform="matrix(1,0,0,1,1943.915352192566,1424.8352840387508) translate(73.11111111111111 17.944444444444443)"/><g><use xlink:href="#A" transform="matrix(1,0,0,1,1947.915352192566,1467.5019507054176) translate(0 17.766666666666666)"/><use xlink:href="#B" transform="matrix(1,0,0,1,1947.915352192566,1467.5019507054176) translate(12.97777777777778 17.766666666666666)"/><use xlink:href="#C" transform="matrix(1,0,0,1,1947.915352192566,1467.5019507054176) translate(118.39999999999999 17.766666666666666)"/></g><g><use xlink:href="#D" transform="matrix(1,0,0,1,1947.915352192566,1509.6019507054175) translate(0 18.27777777777778)"/><use xlink:href="#E" transform="matrix(1,0,0,1,1947.915352192566,1509.6019507054175) translate(19.1358024691358 18.27777777777778)"/><use xlink:href="#D" transform="matrix(1,0,0,1,1947.915352192566,1509.6019507054175) translate(0 44.94444444444444)"/><use xlink:href="#F" transform="matrix(1,0,0,1,1947.915352192566,1509.6019507054175) translate(19.1358024691358 44.94444444444444)"/><use xlink:href="#D" transform="matrix(1,0,0,1,1947.915352192566,1509.6019507054175) translate(0 71.61111111111111)"/><use xlink:href="#G" transform="matrix(1,0,0,1,1947.915352192566,1509.6019507054175) translate(19.1358024691358 71.61111111111111)"/></g><path d="M1660 1480h209.55l10.45 10.45v41.8h-220z" stroke="#5e5e5e" stroke-width="3" fill="#fff"/><path d="M1869.55 1481.43v9.02h9.02" stroke="#5e5e5e" stroke-width="3" fill="#fff"/><g><use xlink:href="#H" transform="matrix(1,0,0,1,1665,1485) translate(17.30555555555557 26.749999999999993)"/></g><path d="M1882.5 1506.13h4.86m9.73 0h4.86l.94.07.9.22.88.36.8.5.72.6.6.72.5.8.36.88.22.9.08.95v3.3l.07.94.22.92.36.86.5.8.62.72.7.6.8.5.88.36.92.22.94.07h4.86m9.73 0h4.87" stroke="#5e5e5e" stroke-width="2" fill="none"/><path d="M1882.53 1507.13h-1.03v-2h1.03zM1934.4 1522.43h-1v-2h1z" stroke="#5e5e5e" stroke-width=".05" fill="#5e5e5e"/><path d="M2700 1408.34a6 6 0 0 1 6-6h254.73a6 6 0 0 1 6 6v116a6 6 0 0 1-6 6H2706a6 6 0 0 1-6-6z" stroke="#5e5e5e" stroke-width="3" fill="#fff"/><path d="M2700 1445h266.73M2700 1487.67h266.73" stroke="#5e5e5e" stroke-width="3" fill="none"/><g><use xlink:href="#I" transform="matrix(1,0,0,1,2708,1410.3352840387508) translate(-0.8888888888888573 17.944444444444443)"/></g><g><use xlink:href="#J" transform="matrix(1,0,0,1,2712,1495.6686173720843) translate(0 17.944444444444443)"/><use xlink:href="#K" transform="matrix(1,0,0,1,2712,1495.6686173720843) translate(19.1358024691358 17.944444444444443)"/></g><path d="M2833.37 1399.84v-6.1a6 6 0 0 0-6-6h-266.14a6 6 0 0 1-6-6v-9.5" stroke="#5e5e5e" stroke-width="2" fill="none"/><path d="M2834.37 1400.84h-2v-1.03h2z" stroke="#5e5e5e" stroke-width=".05" fill="#5e5e5e"/><path d="M2555.23 1349.72l12.73 21.52h-25.45z" stroke="#5e5e5e" stroke-width="2" fill="#fff"/><path d="M2860 1616.34a6 6 0 0 1 6-6h248a6 6 0 0 1 6 6v223a6 6 0 0 1-6 6h-248a6 6 0 0 1-6-6z" stroke="#5e5e5e" stroke-width="3" fill="#fff"/><path d="M2860 1653h260m-260 42.67h260" stroke="#5e5e5e" stroke-width="3" fill="none"/><g><use xlink:href="#L" transform="matrix(1,0,0,1,2868,1618.3352840387508) translate(9.80864197530866 17.944444444444443)"/></g><g><use xlink:href="#o" transform="matrix(1,0,0,1,2872,1661.0019507054176) translate(0 17.944444444444443)"/><use xlink:href="#p" transform="matrix(1,0,0,1,2872,1661.0019507054176) translate(13.518518518518519 17.944444444444443)"/><use xlink:href="#q" transform="matrix(1,0,0,1,2872,1661.0019507054176) translate(77.5925925925926 17.944444444444443)"/></g><g><use xlink:href="#f" transform="matrix(1,0,0,1,2872,1703.6686173720843) translate(0 18.111111111111107)"/><use xlink:href="#r" transform="matrix(1,0,0,1,2872,1703.6686173720843) translate(19.1358024691358 18.111111111111107)"/><use xlink:href="#f" transform="matrix(1,0,0,1,2872,1703.6686173720843) translate(0 44.77777777777777)"/><use xlink:href="#s" transform="matrix(1,0,0,1,2872,1703.6686173720843) translate(19.1358024691358 44.77777777777777)"/><use xlink:href="#t" transform="matrix(1,0,0,1,2872,1703.6686173720843) translate(0 71.44444444444444)"/><use xlink:href="#u" transform="matrix(1,0,0,1,2872,1703.6686173720843) translate(19.1358024691358 71.44444444444444)"/><use xlink:href="#t" transform="matrix(1,0,0,1,2872,1703.6686173720843) translate(0 98.11111111111111)"/><use xlink:href="#v" transform="matrix(1,0,0,1,2872,1703.6686173720843) translate(19.1358024691358 98.11111111111111)"/><use xlink:href="#t" transform="matrix(1,0,0,1,2872,1703.6686173720843) translate(0 124.77777777777777)"/><use xlink:href="#w" transform="matrix(1,0,0,1,2872,1703.6686173720843) translate(19.1358024691358 124.77777777777777)"/></g><path d="M2990 1607.84v-31.5a6 6 0 0 0-6-6h-144.63a6 6 0 0 1-6-6v-8.02" stroke="#5e5e5e" stroke-width="2" fill="none"/><path d="M2991 1608.84h-2v-1.03h2z" stroke="#5e5e5e" stroke-width=".05" fill="#5e5e5e"/><path d="M2833.37 1533.8l12.72 21.52h-25.46z" stroke="#5e5e5e" stroke-width="2" fill="#fff"/><path d="M1660 1540h209.55l10.45 10.45v41.8h-220z" stroke="#5e5e5e" stroke-width="3" fill="#fff"/><path d="M1869.55 1541.43v9.02h9.02" stroke="#5e5e5e" stroke-width="3" fill="#fff"/><g><use xlink:href="#M" transform="matrix(1,0,0,1,1665,1545) translate(4.555555555555571 26.749999999999993)"/></g><path d="M1882.5 1566.13h4.86m9.73 0h4.86l.94-.07.9-.22.88-.36.8-.5.72-.6.6-.72.5-.8.36-.88.22-.9.08-.95v-4.78l.07-.93.22-.92.36-.87.5-.8.62-.72.7-.6.8-.5.88-.35.92-.22.94-.08h4.86m9.73 0h4.87" stroke="#5e5e5e" stroke-width="2" fill="none"/><path d="M1882.53 1567.13h-1.03v-2h1.03zM1934.4 1550.36h-1v-2h1z" stroke="#5e5e5e" stroke-width=".05" fill="#5e5e5e"/><defs><path fill="#333" d="M185-189c-5-48-123-54-124 2 14 75 158 14 163 119 3 78-121 87-175 55-17-10-28-26-33-46l33-7c5 56 141 63 141-1 0-78-155-14-162-118-5-82 145-84 179-34 5 7 8 16 11 25" id="N"/><path fill="#333" d="M59-47c-2 24 18 29 38 22v24C64 9 27 4 27-40v-127H5v-23h24l9-43h21v43h35v23H59v120" id="O"/><path fill="#333" d="M114-163C36-179 61-72 57 0H25l-1-190h30c1 12-1 29 2 39 6-27 23-49 58-41v29" id="P"/><path fill="#333" d="M141-36C126-15 110 5 73 4 37 3 15-17 15-53c-1-64 63-63 125-63 3-35-9-54-41-54-24 1-41 7-42 31l-33-3c5-37 33-52 76-52 45 0 72 20 72 64v82c-1 20 7 32 28 27v20c-31 9-61-2-59-35zM48-53c0 20 12 33 32 33 41-3 63-29 60-74-43 2-92-5-92 41" id="Q"/><path fill="#333" d="M100-194c63 0 86 42 84 106H49c0 40 14 67 53 68 26 1 43-12 49-29l28 8c-11 28-37 45-77 45C44 4 14-33 15-96c1-61 26-98 85-98zm52 81c6-60-76-77-97-28-3 7-6 17-6 28h103" id="R"/><path fill="#333" d="M177-190C167-65 218 103 67 71c-23-6-38-20-44-43l32-5c15 47 100 32 89-28v-30C133-14 115 1 83 1 29 1 15-40 15-95c0-56 16-97 71-98 29-1 48 16 59 35 1-10 0-23 2-32h30zM94-22c36 0 50-32 50-73 0-42-14-75-50-75-39 0-46 34-46 75s6 73 46 73" id="S"/><path fill="#333" d="M179-190L93 31C79 59 56 82 12 73V49c39 6 53-20 64-50L1-190h34L92-34l54-156h33" id="T"/><g id="a"><use transform="matrix(0.0987654320987654,0,0,0.0987654320987654,0,0)" xlink:href="#N"/><use transform="matrix(0.0987654320987654,0,0,0.0987654320987654,23.703703703703695,0)" xlink:href="#O"/><use transform="matrix(0.0987654320987654,0,0,0.0987654320987654,33.58024691358023,0)" xlink:href="#P"/><use transform="matrix(0.0987654320987654,0,0,0.0987654320987654,45.333333333333314,0)" xlink:href="#Q"/><use transform="matrix(0.0987654320987654,0,0,0.0987654320987654,65.08641975308639,0)" xlink:href="#O"/><use transform="matrix(0.0987654320987654,0,0,0.0987654320987654,74.96296296296293,0)" xlink:href="#R"/><use transform="matrix(0.0987654320987654,0,0,0.0987654320987654,94.71604938271601,0)" xlink:href="#S"/><use transform="matrix(0.0987654320987654,0,0,0.0987654320987654,114.46913580246907,0)" xlink:href="#T"/></g><path fill="#333" d="M248-139C247-14 144 9 11 0l48-248c105-6 190 8 189 109zm-34 0c1-70-52-87-126-82L50-27c98 7 163-21 164-112" id="U"/><path fill="#333" d="M111-194c62-3 86 47 72 106H45c-7 38 6 69 45 68 27-1 43-14 53-32l24 11C152-15 129 4 87 4 38 3 12-23 12-71c0-70 32-119 99-123zm44 81c14-66-71-72-95-28-4 8-8 17-11 28h106" id="V"/><path fill="#333" d="M89 0H52L20-190h33L74-25l89-165h34" id="W"/><path fill="#333" d="M50-231l6-30h32l-6 30H50zM6 0l37-190h31L37 0H6" id="X"/><path fill="#333" d="M44-68c0 29 11 47 38 47 30 0 42-19 51-41l28 9C148-21 126 4 82 4 31 4 10-29 12-85c3-77 74-140 146-93 12 8 15 23 18 40l-31 5c-1-22-13-36-36-36-52 0-65 49-65 101" id="Y"/><path fill="#333" d="M125-24c46 0 70-25 89-51l25 16C214-24 183 4 123 4 8 4-5-146 60-208c32-50 158-61 191-5 5 7 9 14 11 22l-32 10c-9-28-33-43-69-43-74 0-108 51-108 125 0 46 24 75 72 75" id="Z"/><path fill="#333" d="M30-147c31-64 166-65 159 27C183-49 158 1 86 4 9 8 1-88 30-147zM88-20c53 0 68-48 68-100 0-31-11-51-44-50-52 1-68 46-68 97 0 32 13 53 44 53" id="aa"/><path fill="#333" d="M67-158c22-48 132-52 116 29L158 0h-32l25-140c3-38-53-32-70-12C52-117 51-52 38 0H6l36-190h30" id="ab"/><path fill="#333" d="M51-54c-9 22 5 41 31 30L79-1C43 14 10-4 19-52l22-115H19l5-23h22l19-43h21l-9 43h35l-4 23H73" id="ac"/><path fill="#333" d="M66-151c12-25 30-51 66-40l-6 26C45-176 58-65 38 0H6l36-190h30" id="ad"/><g id="b"><use transform="matrix(0.06172839506172839,0,0,0.06172839506172839,0,0)" xlink:href="#U"/><use transform="matrix(0.06172839506172839,0,0,0.06172839506172839,15.987654320987653,0)" xlink:href="#V"/><use transform="matrix(0.06172839506172839,0,0,0.06172839506172839,28.333333333333332,0)" xlink:href="#W"/><use transform="matrix(0.06172839506172839,0,0,0.06172839506172839,39.44444444444444,0)" xlink:href="#X"/><use transform="matrix(0.06172839506172839,0,0,0.06172839506172839,44.32098765432099,0)" xlink:href="#Y"/><use transform="matrix(0.06172839506172839,0,0,0.06172839506172839,55.4320987654321,0)" xlink:href="#V"/><use transform="matrix(0.06172839506172839,0,0,0.06172839506172839,67.77777777777779,0)" xlink:href="#Z"/><use transform="matrix(0.06172839506172839,0,0,0.06172839506172839,83.76543209876544,0)" xlink:href="#aa"/><use transform="matrix(0.06172839506172839,0,0,0.06172839506172839,96.11111111111113,0)" xlink:href="#ab"/><use transform="matrix(0.06172839506172839,0,0,0.06172839506172839,108.45679012345681,0)" xlink:href="#ab"/><use transform="matrix(0.06172839506172839,0,0,0.06172839506172839,120.8024691358025,0)" xlink:href="#V"/><use transform="matrix(0.06172839506172839,0,0,0.06172839506172839,133.14814814814818,0)" xlink:href="#Y"/><use transform="matrix(0.06172839506172839,0,0,0.06172839506172839,144.2592592592593,0)" xlink:href="#ac"/><use transform="matrix(0.06172839506172839,0,0,0.06172839506172839,150.43209876543213,0)" xlink:href="#aa"/><use transform="matrix(0.06172839506172839,0,0,0.06172839506172839,162.7777777777778,0)" xlink:href="#ad"/></g><path fill="#333" d="M158-156l-14 65h45v19h-49L124 0h-19l15-72H56L41 0H22l15-72H2v-19h39l14-65H11v-19h48l15-71h20l-16 71h64l16-71h19l-16 71h37v19h-40zm-83 0L61-91h63l14-65H75" id="ae"/><use transform="matrix(0.06172839506172839,0,0,0.06172839506172839,0,0)" xlink:href="#ae" id="c"/><path fill="#333" d="M115-194c55 1 70 41 70 98S169 2 115 4C84 4 66-9 55-30l1 105H24l-1-265h31l2 30c10-21 28-34 59-34zm-8 174c40 0 45-34 45-75s-6-73-45-74c-42 0-51 32-51 76 0 43 10 73 51 73" id="af"/><path fill="#333" d="M100-194c62-1 85 37 85 99 1 63-27 99-86 99S16-35 15-95c0-66 28-99 85-99zM99-20c44 1 53-31 53-75 0-43-8-75-51-75s-53 32-53 75 10 74 51 75" id="ag"/><path fill="#333" d="M96-169c-40 0-48 33-48 73s9 75 48 75c24 0 41-14 43-38l32 2c-6 37-31 61-74 61-59 0-76-41-82-99-10-93 101-131 147-64 4 7 5 14 7 22l-32 3c-4-21-16-35-41-35" id="ah"/><path fill="#333" d="M24 0v-261h32V0H24" id="ai"/><g id="d"><use transform="matrix(0.06172839506172839,0,0,0.06172839506172839,0,0)" xlink:href="#af"/><use transform="matrix(0.06172839506172839,0,0,0.06172839506172839,12.345679012345679,0)" xlink:href="#P"/><use transform="matrix(0.06172839506172839,0,0,0.06172839506172839,19.691358024691358,0)" xlink:href="#ag"/><use transform="matrix(0.06172839506172839,0,0,0.06172839506172839,32.03703703703704,0)" xlink:href="#O"/><use transform="matrix(0.06172839506172839,0,0,0.06172839506172839,38.20987654320988,0)" xlink:href="#ag"/><use transform="matrix(0.06172839506172839,0,0,0.06172839506172839,50.55555555555556,0)" xlink:href="#ah"/><use transform="matrix(0.06172839506172839,0,0,0.06172839506172839,61.66666666666667,0)" xlink:href="#ag"/><use transform="matrix(0.06172839506172839,0,0,0.06172839506172839,74.01234567901236,0)" xlink:href="#ai"/></g><path fill="#333" d="M115-194c53 0 69 39 70 98 0 66-23 100-70 100C84 3 66-7 56-30L54 0H23l1-261h32v101c10-23 28-34 59-34zm-8 174c40 0 45-34 45-75 0-40-5-75-45-74-42 0-51 32-51 76 0 43 10 73 51 73" id="aj"/><path fill="#333" d="M24-231v-30h32v30H24zM24 0v-190h32V0H24" id="ak"/><path fill="#333" d="M135-143c-3-34-86-38-87 0 15 53 115 12 119 90S17 21 10-45l28-5c4 36 97 45 98 0-10-56-113-15-118-90-4-57 82-63 122-42 12 7 21 19 24 35" id="al"/><g id="e"><use transform="matrix(0.06172839506172839,0,0,0.06172839506172839,0,0)" xlink:href="#ah"/><use transform="matrix(0.06172839506172839,0,0,0.06172839506172839,11.11111111111111,0)" xlink:href="#Q"/><use transform="matrix(0.06172839506172839,0,0,0.06172839506172839,23.45679012345679,0)" xlink:href="#af"/><use transform="matrix(0.06172839506172839,0,0,0.06172839506172839,35.80246913580247,0)" xlink:href="#Q"/><use transform="matrix(0.06172839506172839,0,0,0.06172839506172839,48.148148148148145,0)" xlink:href="#aj"/><use transform="matrix(0.06172839506172839,0,0,0.06172839506172839,60.49382716049382,0)" xlink:href="#ak"/><use transform="matrix(0.06172839506172839,0,0,0.06172839506172839,65.37037037037037,0)" xlink:href="#ai"/><use transform="matrix(0.06172839506172839,0,0,0.06172839506172839,70.24691358024691,0)" xlink:href="#ak"/><use transform="matrix(0.06172839506172839,0,0,0.06172839506172839,75.12345679012346,0)" xlink:href="#O"/><use transform="matrix(0.06172839506172839,0,0,0.06172839506172839,81.29629629629629,0)" xlink:href="#ak"/><use transform="matrix(0.06172839506172839,0,0,0.06172839506172839,86.17283950617283,0)" xlink:href="#R"/><use transform="matrix(0.06172839506172839,0,0,0.06172839506172839,98.51851851851852,0)" xlink:href="#al"/></g><path fill="#333" d="M118-107v75H92v-75H18v-26h74v-75h26v75h74v26h-74" id="am"/><use transform="matrix(0.06172839506172839,0,0,0.06172839506172839,0,0)" xlink:href="#am" id="f"/><path fill="#333" d="M17-49c1-102 45-165 103-212h30C92-210 49-145 49-46 49 4 63 43 85 75H54C30 43 18 2 17-49" id="an"/><path fill="#333" d="M98-137C97-35 54 29-4 75h-31C23 23 67-41 67-140c0-50-15-89-37-121h31c24 32 36 73 37 124" id="ao"/><g id="g"><use transform="matrix(0.06172839506172839,0,0,0.06172839506172839,0,0)" xlink:href="#Y"/><use transform="matrix(0.06172839506172839,0,0,0.06172839506172839,11.11111111111111,0)" xlink:href="#aa"/><use transform="matrix(0.06172839506172839,0,0,0.06172839506172839,23.45679012345679,0)" xlink:href="#ab"/><use transform="matrix(0.06172839506172839,0,0,0.06172839506172839,35.80246913580247,0)" xlink:href="#ab"/><use transform="matrix(0.06172839506172839,0,0,0.06172839506172839,48.148148148148145,0)" xlink:href="#V"/><use transform="matrix(0.06172839506172839,0,0,0.06172839506172839,60.49382716049382,0)" xlink:href="#Y"/><use transform="matrix(0.06172839506172839,0,0,0.06172839506172839,71.60493827160494,0)" xlink:href="#ac"/><use transform="matrix(0.06172839506172839,0,0,0.06172839506172839,77.77777777777777,0)" xlink:href="#an"/><use transform="matrix(0.06172839506172839,0,0,0.06172839506172839,85.12345679012346,0)" xlink:href="#ao"/></g><path fill="#333" d="M133-28C103 26-5 8 13-77c13-62 24-115 90-117 29-1 46 15 56 35l19-102h32L160 0h-30zM45-64c-2 27 10 43 35 43 54-1 69-50 69-103 0-29-15-46-42-46-53-1-58 58-62 106" id="ap"/><path fill="#333" d="M55-144c13 50 104 24 104 88C159 21 15 23 1-39l26-10c6 40 102 42 102-4-13-50-104-23-104-87 0-71 143-71 148-8l-29 4c-5-35-85-37-89 0" id="aq"/><g id="h"><use transform="matrix(0.06172839506172839,0,0,0.06172839506172839,0,0)" xlink:href="#ap"/><use transform="matrix(0.06172839506172839,0,0,0.06172839506172839,12.345679012345679,0)" xlink:href="#X"/><use transform="matrix(0.06172839506172839,0,0,0.06172839506172839,17.22222222222222,0)" xlink:href="#aq"/><use transform="matrix(0.06172839506172839,0,0,0.06172839506172839,28.333333333333332,0)" xlink:href="#Y"/><use transform="matrix(0.06172839506172839,0,0,0.06172839506172839,39.44444444444444,0)" xlink:href="#aa"/><use transform="matrix(0.06172839506172839,0,0,0.06172839506172839,51.79012345679012,0)" xlink:href="#ab"/><use transform="matrix(0.06172839506172839,0,0,0.06172839506172839,64.1358024691358,0)" xlink:href="#ab"/><use transform="matrix(0.06172839506172839,0,0,0.06172839506172839,76.48148148148148,0)" xlink:href="#V"/><use transform="matrix(0.06172839506172839,0,0,0.06172839506172839,88.82716049382717,0)" xlink:href="#Y"/><use transform="matrix(0.06172839506172839,0,0,0.06172839506172839,99.93827160493828,0)" xlink:href="#ac"/><use transform="matrix(0.06172839506172839,0,0,0.06172839506172839,106.11111111111111,0)" xlink:href="#an"/><use transform="matrix(0.06172839506172839,0,0,0.06172839506172839,113.4567901234568,0)" xlink:href="#ao"/></g><path fill="#333" d="M123-107v75H97v-75H23v-26h74v-75h26v75h75v26h-75" id="ar"/><use transform="matrix(0.06172839506172839,0,0,0.06172839506172839,0,0)" xlink:href="#ar" id="i"/><path fill="#333" d="M165-48c-4 18 1 34 23 27l-3 20c-29 8-62 0-52-35h-2C116-14 99 4 63 4 30 4 8-16 8-49c0-68 71-67 138-67 10-26 0-56-31-54-26 1-42 9-47 31l-32-5c8-67 160-71 144 15-5 28-9 54-15 81zM42-50c3 52 80 24 89-6 7-12 7-24 11-38-47 1-103-4-100 44" id="as"/><path fill="#333" d="M198-190L69 30C53 58 25 83-20 72c4-11-1-27 19-22 33-1 43-29 59-52L20-190h32L79-34l84-156h35" id="at"/><g id="j"><use transform="matrix(0.06172839506172839,0,0,0.06172839506172839,0,0)" xlink:href="#aq"/><use transform="matrix(0.06172839506172839,0,0,0.06172839506172839,11.11111111111111,0)" xlink:href="#ac"/><use transform="matrix(0.06172839506172839,0,0,0.06172839506172839,17.28395061728395,0)" xlink:href="#as"/><use transform="matrix(0.06172839506172839,0,0,0.06172839506172839,29.629629629629626,0)" xlink:href="#ad"/><use transform="matrix(0.06172839506172839,0,0,0.06172839506172839,36.9753086419753,0)" xlink:href="#ac"/><use transform="matrix(0.06172839506172839,0,0,0.06172839506172839,43.148148148148145,0)" xlink:href="#U"/><use transform="matrix(0.06172839506172839,0,0,0.06172839506172839,59.1358024691358,0)" xlink:href="#X"/><use transform="matrix(0.06172839506172839,0,0,0.06172839506172839,64.01234567901234,0)" xlink:href="#aq"/><use transform="matrix(0.06172839506172839,0,0,0.06172839506172839,75.12345679012346,0)" xlink:href="#Y"/><use transform="matrix(0.06172839506172839,0,0,0.06172839506172839,86.23456790123457,0)" xlink:href="#aa"/><use transform="matrix(0.06172839506172839,0,0,0.06172839506172839,98.58024691358025,0)" xlink:href="#W"/><use transform="matrix(0.06172839506172839,0,0,0.06172839506172839,109.69135802469137,0)" xlink:href="#V"/><use transform="matrix(0.06172839506172839,0,0,0.06172839506172839,122.03703703703705,0)" xlink:href="#ad"/><use transform="matrix(0.06172839506172839,0,0,0.06172839506172839,129.38271604938274,0)" xlink:href="#at"/><use transform="matrix(0.06172839506172839,0,0,0.06172839506172839,140.49382716049385,0)" xlink:href="#an"/><use transform="matrix(0.06172839506172839,0,0,0.06172839506172839,147.83950617283952,0)" xlink:href="#ao"/></g><path fill="#333" d="M76-167L44 0H12l33-167H18l4-23h27c3-47 25-81 82-69l-4 24c-35-8-44 15-46 45h37l-5 23H76" id="au"/><path fill="#333" d="M67-158c15-20 31-36 64-36 94 0 33 127 27 194h-32l25-140c3-38-53-32-70-12C52-117 51-51 37 0H6l51-261h31" id="av"/><g id="k"><use transform="matrix(0.06172839506172839,0,0,0.06172839506172839,0,0)" xlink:href="#au"/><use transform="matrix(0.06172839506172839,0,0,0.06172839506172839,6.172839506172839,0)" xlink:href="#X"/><use transform="matrix(0.06172839506172839,0,0,0.06172839506172839,11.049382716049383,0)" xlink:href="#ab"/><use transform="matrix(0.06172839506172839,0,0,0.06172839506172839,23.395061728395063,0)" xlink:href="#X"/><use transform="matrix(0.06172839506172839,0,0,0.06172839506172839,28.271604938271608,0)" xlink:href="#aq"/><use transform="matrix(0.06172839506172839,0,0,0.06172839506172839,39.38271604938272,0)" xlink:href="#av"/><use transform="matrix(0.06172839506172839,0,0,0.06172839506172839,51.7283950617284,0)" xlink:href="#U"/><use transform="matrix(0.06172839506172839,0,0,0.06172839506172839,67.71604938271605,0)" xlink:href="#X"/><use transform="matrix(0.06172839506172839,0,0,0.06172839506172839,72.5925925925926,0)" xlink:href="#aq"/><use transform="matrix(0.06172839506172839,0,0,0.06172839506172839,83.70370370370371,0)" xlink:href="#Y"/><use transform="matrix(0.06172839506172839,0,0,0.06172839506172839,94.81481481481482,0)" xlink:href="#aa"/><use transform="matrix(0.06172839506172839,0,0,0.06172839506172839,107.16049382716051,0)" xlink:href="#W"/><use transform="matrix(0.06172839506172839,0,0,0.06172839506172839,118.27160493827162,0)" xlink:href="#V"/><use transform="matrix(0.06172839506172839,0,0,0.06172839506172839,130.6172839506173,0)" xlink:href="#ad"/><use transform="matrix(0.06172839506172839,0,0,0.06172839506172839,137.96296296296296,0)" xlink:href="#at"/><use transform="matrix(0.06172839506172839,0,0,0.06172839506172839,149.07407407407408,0)" xlink:href="#an"/><use transform="matrix(0.06172839506172839,0,0,0.06172839506172839,156.41975308641975,0)" xlink:href="#ao"/></g><path d="M101-251c68 0 85 55 85 127S166 4 100 4C33 4 14-52 14-124c0-73 17-127 87-127zm-1 229c47 0 54-49 54-102s-4-102-53-102c-51 0-55 48-55 102 0 53 5 102 54 102" id="aw"/><path d="M33 0v-38h34V0H33" id="ax"/><path d="M27 0v-27h64v-190l-56 39v-29l58-41h29v221h61V0H27" id="ay"/><g id="l"><use transform="matrix(0.05,0,0,0.05,0,0)" xlink:href="#aw"/><use transform="matrix(0.05,0,0,0.05,10,0)" xlink:href="#ax"/><use transform="matrix(0.05,0,0,0.05,15,0)" xlink:href="#ax"/><use transform="matrix(0.05,0,0,0.05,20,0)" xlink:href="#ay"/></g><use transform="matrix(0.05,0,0,0.05,0,0)" xlink:href="#ay" id="m"/><path fill="#333" d="M160-131c35 5 61 23 61 61C221 17 115-2 30 0v-248c76 3 177-17 177 60 0 33-19 50-47 57zm-97-11c50-1 110 9 110-42 0-47-63-36-110-37v79zm0 115c55-2 124 14 124-45 0-56-70-42-124-44v89" id="az"/><path fill="#333" d="M30 0v-248h33v221h125V0H30" id="aA"/><path fill="#333" d="M106-169C34-169 62-67 57 0H25v-261h32l-1 103c12-21 28-36 61-36 89 0 53 116 60 194h-32v-121c2-32-8-49-39-48" id="aB"/><path fill="#333" d="M137 0h-34L2-248h35l83 218 83-218h36" id="aC"/><path fill="#333" d="M84 4C-5 8 30-112 23-190h32v120c0 31 7 50 39 49 72-2 45-101 50-169h31l1 190h-30c-1-10 1-25-2-33-11 22-28 36-60 37" id="aD"/><path fill="#333" d="M212-179c-10-28-35-45-73-45-59 0-87 40-87 99 0 60 29 101 89 101 43 0 62-24 78-52l27 14C228-24 195 4 139 4 59 4 22-46 18-125c-6-104 99-153 187-111 19 9 31 26 39 46" id="aE"/><path fill="#333" d="M117-194c89-4 53 116 60 194h-32v-121c0-31-8-49-39-48C34-167 62-67 57 0H25l-1-190h30c1 10-1 24 2 32 11-22 29-35 61-36" id="aF"/><g id="n"><use transform="matrix(0.06172839506172839,0,0,0.06172839506172839,0,0)" xlink:href="#az"/><use transform="matrix(0.06172839506172839,0,0,0.06172839506172839,14.814814814814813,0)" xlink:href="#Q"/><use transform="matrix(0.06172839506172839,0,0,0.06172839506172839,27.160493827160494,0)" xlink:href="#al"/><use transform="matrix(0.06172839506172839,0,0,0.06172839506172839,38.27160493827161,0)" xlink:href="#ak"/><use transform="matrix(0.06172839506172839,0,0,0.06172839506172839,43.14814814814815,0)" xlink:href="#ah"/><use transform="matrix(0.06172839506172839,0,0,0.06172839506172839,54.25925925925927,0)" xlink:href="#aA"/><use transform="matrix(0.06172839506172839,0,0,0.06172839506172839,66.60493827160495,0)" xlink:href="#ak"/><use transform="matrix(0.06172839506172839,0,0,0.06172839506172839,71.4814814814815,0)" xlink:href="#S"/><use transform="matrix(0.06172839506172839,0,0,0.06172839506172839,83.82716049382718,0)" xlink:href="#aB"/><use transform="matrix(0.06172839506172839,0,0,0.06172839506172839,96.17283950617286,0)" xlink:href="#O"/><use transform="matrix(0.06172839506172839,0,0,0.06172839506172839,102.3456790123457,0)" xlink:href="#aC"/><use transform="matrix(0.06172839506172839,0,0,0.06172839506172839,116.7283950617284,0)" xlink:href="#ak"/><use transform="matrix(0.06172839506172839,0,0,0.06172839506172839,121.60493827160495,0)" xlink:href="#P"/><use transform="matrix(0.06172839506172839,0,0,0.06172839506172839,128.95061728395063,0)" xlink:href="#O"/><use transform="matrix(0.06172839506172839,0,0,0.06172839506172839,135.12345679012347,0)" xlink:href="#aD"/><use transform="matrix(0.06172839506172839,0,0,0.06172839506172839,147.46913580246914,0)" xlink:href="#Q"/><use transform="matrix(0.06172839506172839,0,0,0.06172839506172839,159.8148148148148,0)" xlink:href="#ai"/><use transform="matrix(0.06172839506172839,0,0,0.06172839506172839,164.69135802469134,0)" xlink:href="#aE"/><use transform="matrix(0.06172839506172839,0,0,0.06172839506172839,180.67901234567898,0)" xlink:href="#ag"/><use transform="matrix(0.06172839506172839,0,0,0.06172839506172839,193.02469135802465,0)" xlink:href="#aF"/><use transform="matrix(0.06172839506172839,0,0,0.06172839506172839,205.37037037037032,0)" xlink:href="#aF"/><use transform="matrix(0.06172839506172839,0,0,0.06172839506172839,217.716049382716,0)" xlink:href="#R"/><use transform="matrix(0.06172839506172839,0,0,0.06172839506172839,230.06172839506166,0)" xlink:href="#ah"/><use transform="matrix(0.06172839506172839,0,0,0.06172839506172839,241.17283950617278,0)" xlink:href="#O"/><use transform="matrix(0.06172839506172839,0,0,0.06172839506172839,247.3456790123456,0)" xlink:href="#ag"/><use transform="matrix(0.06172839506172839,0,0,0.06172839506172839,259.6913580246913,0)" xlink:href="#P"/></g><path fill="#333" d="M16-82v-28h88v28H16" id="aG"/><use transform="matrix(0.06172839506172839,0,0,0.06172839506172839,0,0)" xlink:href="#aG" id="o"/><path fill="#333" d="M33-154v-36h34v36H33zM33 0v-36h34V0H33" id="aH"/><g id="p"><use transform="matrix(0.06172839506172839,0,0,0.06172839506172839,0,0)" xlink:href="#ah"/><use transform="matrix(0.06172839506172839,0,0,0.06172839506172839,11.11111111111111,0)" xlink:href="#ai"/><use transform="matrix(0.06172839506172839,0,0,0.06172839506172839,15.987654320987653,0)" xlink:href="#ak"/><use transform="matrix(0.06172839506172839,0,0,0.06172839506172839,20.864197530864196,0)" xlink:href="#R"/><use transform="matrix(0.06172839506172839,0,0,0.06172839506172839,33.20987654320987,0)" xlink:href="#aF"/><use transform="matrix(0.06172839506172839,0,0,0.06172839506172839,45.55555555555555,0)" xlink:href="#O"/><use transform="matrix(0.06172839506172839,0,0,0.06172839506172839,51.72839506172839,0)" xlink:href="#aH"/></g><path fill="#333" d="M210-169c-67 3-38 105-44 169h-31v-121c0-29-5-50-35-48C34-165 62-65 56 0H25l-1-190h30c1 10-1 24 2 32 10-44 99-50 107 0 11-21 27-35 58-36 85-2 47 119 55 194h-31v-121c0-29-5-49-35-48" id="aI"/><path fill="#333" d="M145-31C134-9 116 4 85 4 32 4 16-35 15-94c0-59 17-99 70-100 32-1 48 14 60 33 0-11-1-24 2-32h30l-1 268h-32zM93-21c41 0 51-33 51-76s-8-73-50-73c-40 0-46 35-46 75s5 74 45 74" id="aJ"/><path fill="#333" d="M-5 72V49h209v23H-5" id="aK"/><g id="q"><use transform="matrix(0.06172839506172839,0,0,0.06172839506172839,0,0)" xlink:href="#aI"/><use transform="matrix(0.06172839506172839,0,0,0.06172839506172839,18.456790123456788,0)" xlink:href="#aJ"/><use transform="matrix(0.06172839506172839,0,0,0.06172839506172839,30.80246913580247,0)" xlink:href="#O"/><use transform="matrix(0.06172839506172839,0,0,0.06172839506172839,36.97530864197531,0)" xlink:href="#O"/><use transform="matrix(0.06172839506172839,0,0,0.06172839506172839,43.14814814814815,0)" xlink:href="#aK"/><use transform="matrix(0.06172839506172839,0,0,0.06172839506172839,55.49382716049383,0)" xlink:href="#ah"/><use transform="matrix(0.06172839506172839,0,0,0.06172839506172839,66.60493827160494,0)" xlink:href="#ai"/><use transform="matrix(0.06172839506172839,0,0,0.06172839506172839,71.48148148148148,0)" xlink:href="#ak"/><use transform="matrix(0.06172839506172839,0,0,0.06172839506172839,76.35802469135803,0)" xlink:href="#R"/><use transform="matrix(0.06172839506172839,0,0,0.06172839506172839,88.70370370370371,0)" xlink:href="#aF"/><use transform="matrix(0.06172839506172839,0,0,0.06172839506172839,101.0493827160494,0)" xlink:href="#O"/></g><path fill="#333" d="M87 75C49 33 22-17 22-94c0-76 28-126 65-167h31c-38 41-64 92-64 168S80 34 118 75H87" id="aL"/><path fill="#333" d="M33-261c38 41 65 92 65 168S71 34 33 75H2C39 34 66-17 66-93S39-220 2-261h31" id="aM"/><g id="r"><use transform="matrix(0.06172839506172839,0,0,0.06172839506172839,0,0)" xlink:href="#ah"/><use transform="matrix(0.06172839506172839,0,0,0.06172839506172839,11.11111111111111,0)" xlink:href="#ag"/><use transform="matrix(0.06172839506172839,0,0,0.06172839506172839,23.45679012345679,0)" xlink:href="#aF"/><use transform="matrix(0.06172839506172839,0,0,0.06172839506172839,35.80246913580247,0)" xlink:href="#aF"/><use transform="matrix(0.06172839506172839,0,0,0.06172839506172839,48.148148148148145,0)" xlink:href="#R"/><use transform="matrix(0.06172839506172839,0,0,0.06172839506172839,60.49382716049382,0)" xlink:href="#ah"/><use transform="matrix(0.06172839506172839,0,0,0.06172839506172839,71.60493827160494,0)" xlink:href="#O"/><use transform="matrix(0.06172839506172839,0,0,0.06172839506172839,77.77777777777777,0)" xlink:href="#aL"/><use transform="matrix(0.06172839506172839,0,0,0.06172839506172839,85.12345679012346,0)" xlink:href="#aM"/></g><path fill="#333" d="M85-194c31 0 48 13 60 33l-1-100h32l1 261h-30c-2-10 0-23-3-31C134-8 116 4 85 4 32 4 16-35 15-94c0-66 23-100 70-100zm9 24c-40 0-46 34-46 75 0 40 6 74 45 74 42 0 51-32 51-76 0-42-9-74-50-73" id="aN"/><g id="s"><use transform="matrix(0.06172839506172839,0,0,0.06172839506172839,0,0)" xlink:href="#aN"/><use transform="matrix(0.06172839506172839,0,0,0.06172839506172839,12.345679012345679,0)" xlink:href="#ak"/><use transform="matrix(0.06172839506172839,0,0,0.06172839506172839,17.22222222222222,0)" xlink:href="#al"/><use transform="matrix(0.06172839506172839,0,0,0.06172839506172839,28.333333333333332,0)" xlink:href="#ah"/><use transform="matrix(0.06172839506172839,0,0,0.06172839506172839,39.44444444444444,0)" xlink:href="#ag"/><use transform="matrix(0.06172839506172839,0,0,0.06172839506172839,51.79012345679012,0)" xlink:href="#aF"/><use transform="matrix(0.06172839506172839,0,0,0.06172839506172839,64.1358024691358,0)" xlink:href="#aF"/><use transform="matrix(0.06172839506172839,0,0,0.06172839506172839,76.48148148148148,0)" xlink:href="#R"/><use transform="matrix(0.06172839506172839,0,0,0.06172839506172839,88.82716049382717,0)" xlink:href="#ah"/><use transform="matrix(0.06172839506172839,0,0,0.06172839506172839,99.93827160493828,0)" xlink:href="#O"/><use transform="matrix(0.06172839506172839,0,0,0.06172839506172839,106.11111111111111,0)" xlink:href="#aL"/><use transform="matrix(0.06172839506172839,0,0,0.06172839506172839,113.4567901234568,0)" xlink:href="#aM"/></g><use transform="matrix(0.06172839506172839,0,0,0.06172839506172839,0,0)" xlink:href="#am" id="t"/><path fill="#333" d="M30-248c118-7 216 8 213 122C240-48 200 0 122 0H30v-248zM63-27c89 8 146-16 146-99s-60-101-146-95v194" id="aO"/><path fill="#333" d="M108 0H70L1-190h34L89-25l56-165h34" id="aP"/><g id="u"><use transform="matrix(0.06172839506172839,0,0,0.06172839506172839,0,0)" xlink:href="#al"/><use transform="matrix(0.06172839506172839,0,0,0.06172839506172839,11.11111111111111,0)" xlink:href="#O"/><use transform="matrix(0.06172839506172839,0,0,0.06172839506172839,17.28395061728395,0)" xlink:href="#Q"/><use transform="matrix(0.06172839506172839,0,0,0.06172839506172839,29.629629629629626,0)" xlink:href="#P"/><use transform="matrix(0.06172839506172839,0,0,0.06172839506172839,36.9753086419753,0)" xlink:href="#O"/><use transform="matrix(0.06172839506172839,0,0,0.06172839506172839,43.148148148148145,0)" xlink:href="#aO"/><use transform="matrix(0.06172839506172839,0,0,0.06172839506172839,59.1358024691358,0)" xlink:href="#ak"/><use transform="matrix(0.06172839506172839,0,0,0.06172839506172839,64.01234567901234,0)" xlink:href="#al"/><use transform="matrix(0.06172839506172839,0,0,0.06172839506172839,75.12345679012346,0)" xlink:href="#ah"/><use transform="matrix(0.06172839506172839,0,0,0.06172839506172839,86.23456790123457,0)" xlink:href="#ag"/><use transform="matrix(0.06172839506172839,0,0,0.06172839506172839,98.58024691358025,0)" xlink:href="#aP"/><use transform="matrix(0.06172839506172839,0,0,0.06172839506172839,109.69135802469137,0)" xlink:href="#R"/><use transform="matrix(0.06172839506172839,0,0,0.06172839506172839,122.03703703703705,0)" xlink:href="#P"/><use transform="matrix(0.06172839506172839,0,0,0.06172839506172839,129.38271604938274,0)" xlink:href="#T"/><use transform="matrix(0.06172839506172839,0,0,0.06172839506172839,140.49382716049385,0)" xlink:href="#aL"/><use transform="matrix(0.06172839506172839,0,0,0.06172839506172839,147.83950617283952,0)" xlink:href="#aM"/></g><path fill="#333" d="M101-234c-31-9-42 10-38 44h38v23H63V0H32v-167H5v-23h27c-7-52 17-82 69-68v24" id="aQ"/><g id="v"><use transform="matrix(0.06172839506172839,0,0,0.06172839506172839,0,0)" xlink:href="#aQ"/><use transform="matrix(0.06172839506172839,0,0,0.06172839506172839,6.172839506172839,0)" xlink:href="#ak"/><use transform="matrix(0.06172839506172839,0,0,0.06172839506172839,11.049382716049383,0)" xlink:href="#aF"/><use transform="matrix(0.06172839506172839,0,0,0.06172839506172839,23.395061728395063,0)" xlink:href="#ak"/><use transform="matrix(0.06172839506172839,0,0,0.06172839506172839,28.271604938271608,0)" xlink:href="#al"/><use transform="matrix(0.06172839506172839,0,0,0.06172839506172839,39.38271604938272,0)" xlink:href="#aB"/><use transform="matrix(0.06172839506172839,0,0,0.06172839506172839,51.7283950617284,0)" xlink:href="#aO"/><use transform="matrix(0.06172839506172839,0,0,0.06172839506172839,67.71604938271605,0)" xlink:href="#ak"/><use transform="matrix(0.06172839506172839,0,0,0.06172839506172839,72.5925925925926,0)" xlink:href="#al"/><use transform="matrix(0.06172839506172839,0,0,0.06172839506172839,83.70370370370371,0)" xlink:href="#ah"/><use transform="matrix(0.06172839506172839,0,0,0.06172839506172839,94.81481481481482,0)" xlink:href="#ag"/><use transform="matrix(0.06172839506172839,0,0,0.06172839506172839,107.16049382716051,0)" xlink:href="#aP"/><use transform="matrix(0.06172839506172839,0,0,0.06172839506172839,118.27160493827162,0)" xlink:href="#R"/><use transform="matrix(0.06172839506172839,0,0,0.06172839506172839,130.6172839506173,0)" xlink:href="#P"/><use transform="matrix(0.06172839506172839,0,0,0.06172839506172839,137.96296296296296,0)" xlink:href="#T"/><use transform="matrix(0.06172839506172839,0,0,0.06172839506172839,149.07407407407408,0)" xlink:href="#aL"/><use transform="matrix(0.06172839506172839,0,0,0.06172839506172839,156.41975308641975,0)" xlink:href="#aM"/></g><g id="w"><use transform="matrix(0.06172839506172839,0,0,0.06172839506172839,0,0)" xlink:href="#Q"/><use transform="matrix(0.06172839506172839,0,0,0.06172839506172839,12.345679012345679,0)" xlink:href="#ah"/><use transform="matrix(0.06172839506172839,0,0,0.06172839506172839,23.45679012345679,0)" xlink:href="#O"/><use transform="matrix(0.06172839506172839,0,0,0.06172839506172839,29.62962962962963,0)" xlink:href="#ak"/><use transform="matrix(0.06172839506172839,0,0,0.06172839506172839,34.50617283950617,0)" xlink:href="#ag"/><use transform="matrix(0.06172839506172839,0,0,0.06172839506172839,46.85185185185185,0)" xlink:href="#aF"/><use transform="matrix(0.06172839506172839,0,0,0.06172839506172839,59.197530864197525,0)" xlink:href="#aL"/><use transform="matrix(0.06172839506172839,0,0,0.06172839506172839,66.5432098765432,0)" xlink:href="#aM"/></g><path fill="#333" d="M127-220V0H93v-220H8v-28h204v28h-85" id="aR"/><path fill="#333" d="M30-248c87 1 191-15 191 75 0 78-77 80-158 76V0H30v-248zm33 125c57 0 124 11 124-50 0-59-68-47-124-48v98" id="aS"/><g id="x"><use transform="matrix(0.06172839506172839,0,0,0.06172839506172839,0,0)" xlink:href="#aR"/><use transform="matrix(0.06172839506172839,0,0,0.06172839506172839,13.518518518518517,0)" xlink:href="#aB"/><use transform="matrix(0.06172839506172839,0,0,0.06172839506172839,25.864197530864196,0)" xlink:href="#R"/><use transform="matrix(0.06172839506172839,0,0,0.06172839506172839,38.20987654320987,0)" xlink:href="#P"/><use transform="matrix(0.06172839506172839,0,0,0.06172839506172839,45.55555555555555,0)" xlink:href="#aI"/><use transform="matrix(0.06172839506172839,0,0,0.06172839506172839,64.01234567901234,0)" xlink:href="#ag"/><use transform="matrix(0.06172839506172839,0,0,0.06172839506172839,76.35802469135803,0)" xlink:href="#aI"/><use transform="matrix(0.06172839506172839,0,0,0.06172839506172839,94.81481481481481,0)" xlink:href="#R"/><use transform="matrix(0.06172839506172839,0,0,0.06172839506172839,107.1604938271605,0)" xlink:href="#O"/><use transform="matrix(0.06172839506172839,0,0,0.06172839506172839,113.33333333333333,0)" xlink:href="#R"/><use transform="matrix(0.06172839506172839,0,0,0.06172839506172839,125.67901234567901,0)" xlink:href="#P"/><use transform="matrix(0.06172839506172839,0,0,0.06172839506172839,133.02469135802468,0)" xlink:href="#aS"/><use transform="matrix(0.06172839506172839,0,0,0.06172839506172839,147.8395061728395,0)" xlink:href="#ak"/><use transform="matrix(0.06172839506172839,0,0,0.06172839506172839,152.71604938271602,0)" xlink:href="#aE"/><use transform="matrix(0.06172839506172839,0,0,0.06172839506172839,168.70370370370367,0)" xlink:href="#ag"/><use transform="matrix(0.06172839506172839,0,0,0.06172839506172839,181.04938271604934,0)" xlink:href="#aF"/><use transform="matrix(0.06172839506172839,0,0,0.06172839506172839,193.395061728395,0)" xlink:href="#aF"/><use transform="matrix(0.06172839506172839,0,0,0.06172839506172839,205.74074074074068,0)" xlink:href="#R"/><use transform="matrix(0.06172839506172839,0,0,0.06172839506172839,218.08641975308635,0)" xlink:href="#ah"/><use transform="matrix(0.06172839506172839,0,0,0.06172839506172839,229.19753086419746,0)" xlink:href="#O"/><use transform="matrix(0.06172839506172839,0,0,0.06172839506172839,235.3703703703703,0)" xlink:href="#ag"/><use transform="matrix(0.06172839506172839,0,0,0.06172839506172839,247.71604938271597,0)" xlink:href="#P"/></g><g id="y"><use transform="matrix(0.06172839506172839,0,0,0.06172839506172839,0,0)" xlink:href="#aQ"/><use transform="matrix(0.06172839506172839,0,0,0.06172839506172839,6.172839506172839,0)" xlink:href="#ak"/><use transform="matrix(0.06172839506172839,0,0,0.06172839506172839,11.049382716049383,0)" xlink:href="#aF"/><use transform="matrix(0.06172839506172839,0,0,0.06172839506172839,23.395061728395063,0)" xlink:href="#ak"/><use transform="matrix(0.06172839506172839,0,0,0.06172839506172839,28.271604938271608,0)" xlink:href="#al"/><use transform="matrix(0.06172839506172839,0,0,0.06172839506172839,39.38271604938272,0)" xlink:href="#aB"/><use transform="matrix(0.06172839506172839,0,0,0.06172839506172839,51.7283950617284,0)" xlink:href="#aO"/><use transform="matrix(0.06172839506172839,0,0,0.06172839506172839,67.71604938271605,0)" xlink:href="#ak"/><use transform="matrix(0.06172839506172839,0,0,0.06172839506172839,72.5925925925926,0)" xlink:href="#al"/><use transform="matrix(0.06172839506172839,0,0,0.06172839506172839,83.70370370370371,0)" xlink:href="#ah"/><use transform="matrix(0.06172839506172839,0,0,0.06172839506172839,94.81481481481482,0)" xlink:href="#ag"/><use transform="matrix(0.06172839506172839,0,0,0.06172839506172839,107.16049382716051,0)" xlink:href="#aP"/><use transform="matrix(0.06172839506172839,0,0,0.06172839506172839,118.27160493827162,0)" xlink:href="#R"/><use transform="matrix(0.06172839506172839,0,0,0.06172839506172839,130.6172839506173,0)" xlink:href="#P"/><use transform="matrix(0.06172839506172839,0,0,0.06172839506172839,137.96296296296296,0)" xlink:href="#T"/><use transform="matrix(0.06172839506172839,0,0,0.06172839506172839,149.07407407407408,0)" xlink:href="#aL"/><use transform="matrix(0.06172839506172839,0,0,0.06172839506172839,156.41975308641975,0)" xlink:href="#aM"/></g><g id="z"><use transform="matrix(0.06172839506172839,0,0,0.06172839506172839,0,0)" xlink:href="#aE"/><use transform="matrix(0.06172839506172839,0,0,0.06172839506172839,15.987654320987653,0)" xlink:href="#ag"/><use transform="matrix(0.06172839506172839,0,0,0.06172839506172839,28.333333333333332,0)" xlink:href="#aF"/><use transform="matrix(0.06172839506172839,0,0,0.06172839506172839,40.67901234567901,0)" xlink:href="#ah"/><use transform="matrix(0.06172839506172839,0,0,0.06172839506172839,51.79012345679013,0)" xlink:href="#P"/><use transform="matrix(0.06172839506172839,0,0,0.06172839506172839,59.135802469135804,0)" xlink:href="#R"/><use transform="matrix(0.06172839506172839,0,0,0.06172839506172839,71.48148148148148,0)" xlink:href="#O"/><use transform="matrix(0.06172839506172839,0,0,0.06172839506172839,77.65432098765432,0)" xlink:href="#R"/><use transform="matrix(0.06172839506172839,0,0,0.06172839506172839,90,0)" xlink:href="#aO"/><use transform="matrix(0.06172839506172839,0,0,0.06172839506172839,105.98765432098766,0)" xlink:href="#R"/><use transform="matrix(0.06172839506172839,0,0,0.06172839506172839,118.33333333333334,0)" xlink:href="#aP"/><use transform="matrix(0.06172839506172839,0,0,0.06172839506172839,129.44444444444446,0)" xlink:href="#ak"/><use transform="matrix(0.06172839506172839,0,0,0.06172839506172839,134.320987654321,0)" xlink:href="#ah"/><use transform="matrix(0.06172839506172839,0,0,0.06172839506172839,145.4320987654321,0)" xlink:href="#R"/></g><path d="M16-82v-28h88v28H16" id="aT"/><use transform="matrix(0.05925925925925927,0,0,0.05925925925925927,0,0)" xlink:href="#aT" id="A"/><path d="M96-169c-40 0-48 33-48 73s9 75 48 75c24 0 41-14 43-38l32 2c-6 37-31 61-74 61-59 0-76-41-82-99-10-93 101-131 147-64 4 7 5 14 7 22l-32 3c-4-21-16-35-41-35" id="aU"/><path d="M100-194c62-1 85 37 85 99 1 63-27 99-86 99S16-35 15-95c0-66 28-99 85-99zM99-20c44 1 53-31 53-75 0-43-8-75-51-75s-53 32-53 75 10 74 51 75" id="aV"/><path d="M117-194c89-4 53 116 60 194h-32v-121c0-31-8-49-39-48C34-167 62-67 57 0H25l-1-190h30c1 10-1 24 2 32 11-22 29-35 61-36" id="aW"/><path d="M100-194c63 0 86 42 84 106H49c0 40 14 67 53 68 26 1 43-12 49-29l28 8c-11 28-37 45-77 45C44 4 14-33 15-96c1-61 26-98 85-98zm52 81c6-60-76-77-97-28-3 7-6 17-6 28h103" id="aX"/><path d="M59-47c-2 24 18 29 38 22v24C64 9 27 4 27-40v-127H5v-23h24l9-43h21v43h35v23H59v120" id="aY"/><path d="M114-163C36-179 61-72 57 0H25l-1-190h30c1 12-1 29 2 39 6-27 23-49 58-41v29" id="aZ"/><path d="M33-154v-36h34v36H33zM33 0v-36h34V0H33" id="ba"/><g id="B"><use transform="matrix(0.05925925925925927,0,0,0.05925925925925927,0,0)" xlink:href="#aU"/><use transform="matrix(0.05925925925925927,0,0,0.05925925925925927,10.666666666666668,0)" xlink:href="#aV"/><use transform="matrix(0.05925925925925927,0,0,0.05925925925925927,22.51851851851852,0)" xlink:href="#aW"/><use transform="matrix(0.05925925925925927,0,0,0.05925925925925927,34.370370370370374,0)" xlink:href="#aW"/><use transform="matrix(0.05925925925925927,0,0,0.05925925925925927,46.22222222222223,0)" xlink:href="#aX"/><use transform="matrix(0.05925925925925927,0,0,0.05925925925925927,58.07407407407408,0)" xlink:href="#aU"/><use transform="matrix(0.05925925925925927,0,0,0.05925925925925927,68.74074074074075,0)" xlink:href="#aY"/><use transform="matrix(0.05925925925925927,0,0,0.05925925925925927,74.66666666666667,0)" xlink:href="#aV"/><use transform="matrix(0.05925925925925927,0,0,0.05925925925925927,86.51851851851852,0)" xlink:href="#aZ"/><use transform="matrix(0.05925925925925927,0,0,0.05925925925925927,93.57037037037037,0)" xlink:href="#ba"/></g><path d="M30-248c118-7 216 8 213 122C240-48 200 0 122 0H30v-248zM63-27c89 8 146-16 146-99s-60-101-146-95v194" id="bb"/><path d="M108 0H70L1-190h34L89-25l56-165h34" id="bc"/><path d="M24-231v-30h32v30H24zM24 0v-190h32V0H24" id="bd"/><path d="M212-179c-10-28-35-45-73-45-59 0-87 40-87 99 0 60 29 101 89 101 43 0 62-24 78-52l27 14C228-24 195 4 139 4 59 4 22-46 18-125c-6-104 99-153 187-111 19 9 31 26 39 46" id="be"/><g id="C"><use transform="matrix(0.05925925925925927,0,0,0.05925925925925927,0,0)" xlink:href="#bb"/><use transform="matrix(0.05925925925925927,0,0,0.05925925925925927,15.34814814814815,0)" xlink:href="#aX"/><use transform="matrix(0.05925925925925927,0,0,0.05925925925925927,27.200000000000003,0)" xlink:href="#bc"/><use transform="matrix(0.05925925925925927,0,0,0.05925925925925927,37.866666666666674,0)" xlink:href="#bd"/><use transform="matrix(0.05925925925925927,0,0,0.05925925925925927,42.54814814814816,0)" xlink:href="#aU"/><use transform="matrix(0.05925925925925927,0,0,0.05925925925925927,53.21481481481483,0)" xlink:href="#aX"/><use transform="matrix(0.05925925925925927,0,0,0.05925925925925927,65.06666666666668,0)" xlink:href="#be"/><use transform="matrix(0.05925925925925927,0,0,0.05925925925925927,80.41481481481483,0)" xlink:href="#aV"/><use transform="matrix(0.05925925925925927,0,0,0.05925925925925927,92.26666666666668,0)" xlink:href="#aW"/><use transform="matrix(0.05925925925925927,0,0,0.05925925925925927,104.11851851851853,0)" xlink:href="#aW"/><use transform="matrix(0.05925925925925927,0,0,0.05925925925925927,115.97037037037038,0)" xlink:href="#aX"/><use transform="matrix(0.05925925925925927,0,0,0.05925925925925927,127.82222222222221,0)" xlink:href="#aU"/><use transform="matrix(0.05925925925925927,0,0,0.05925925925925927,138.48888888888888,0)" xlink:href="#aY"/><use transform="matrix(0.05925925925925927,0,0,0.05925925925925927,144.4148148148148,0)" xlink:href="#aV"/><use transform="matrix(0.05925925925925927,0,0,0.05925925925925927,156.26666666666665,0)" xlink:href="#aZ"/></g><use transform="matrix(0.06172839506172839,0,0,0.06172839506172839,0,0)" xlink:href="#am" id="D"/><g id="E"><use transform="matrix(0.06172839506172839,0,0,0.06172839506172839,0,0)" xlink:href="#ah"/><use transform="matrix(0.06172839506172839,0,0,0.06172839506172839,11.11111111111111,0)" xlink:href="#ag"/><use transform="matrix(0.06172839506172839,0,0,0.06172839506172839,23.45679012345679,0)" xlink:href="#aF"/><use transform="matrix(0.06172839506172839,0,0,0.06172839506172839,35.80246913580247,0)" xlink:href="#aF"/><use transform="matrix(0.06172839506172839,0,0,0.06172839506172839,48.148148148148145,0)" xlink:href="#R"/><use transform="matrix(0.06172839506172839,0,0,0.06172839506172839,60.49382716049382,0)" xlink:href="#ah"/><use transform="matrix(0.06172839506172839,0,0,0.06172839506172839,71.60493827160494,0)" xlink:href="#O"/><use transform="matrix(0.06172839506172839,0,0,0.06172839506172839,77.77777777777777,0)" xlink:href="#aL"/><use transform="matrix(0.06172839506172839,0,0,0.06172839506172839,85.12345679012346,0)" xlink:href="#aM"/></g><g id="F"><use transform="matrix(0.06172839506172839,0,0,0.06172839506172839,0,0)" xlink:href="#aN"/><use transform="matrix(0.06172839506172839,0,0,0.06172839506172839,12.345679012345679,0)" xlink:href="#ak"/><use transform="matrix(0.06172839506172839,0,0,0.06172839506172839,17.22222222222222,0)" xlink:href="#al"/><use transform="matrix(0.06172839506172839,0,0,0.06172839506172839,28.333333333333332,0)" xlink:href="#ah"/><use transform="matrix(0.06172839506172839,0,0,0.06172839506172839,39.44444444444444,0)" xlink:href="#ag"/><use transform="matrix(0.06172839506172839,0,0,0.06172839506172839,51.79012345679012,0)" xlink:href="#aF"/><use transform="matrix(0.06172839506172839,0,0,0.06172839506172839,64.1358024691358,0)" xlink:href="#aF"/><use transform="matrix(0.06172839506172839,0,0,0.06172839506172839,76.48148148148148,0)" xlink:href="#R"/><use transform="matrix(0.06172839506172839,0,0,0.06172839506172839,88.82716049382717,0)" xlink:href="#ah"/><use transform="matrix(0.06172839506172839,0,0,0.06172839506172839,99.93827160493828,0)" xlink:href="#O"/><use transform="matrix(0.06172839506172839,0,0,0.06172839506172839,106.11111111111111,0)" xlink:href="#aL"/><use transform="matrix(0.06172839506172839,0,0,0.06172839506172839,113.4567901234568,0)" xlink:href="#aM"/></g><g id="G"><use transform="matrix(0.06172839506172839,0,0,0.06172839506172839,0,0)" xlink:href="#Q"/><use transform="matrix(0.06172839506172839,0,0,0.06172839506172839,12.345679012345679,0)" xlink:href="#ah"/><use transform="matrix(0.06172839506172839,0,0,0.06172839506172839,23.45679012345679,0)" xlink:href="#O"/><use transform="matrix(0.06172839506172839,0,0,0.06172839506172839,29.62962962962963,0)" xlink:href="#ak"/><use transform="matrix(0.06172839506172839,0,0,0.06172839506172839,34.50617283950617,0)" xlink:href="#ag"/><use transform="matrix(0.06172839506172839,0,0,0.06172839506172839,46.85185185185185,0)" xlink:href="#aF"/><use transform="matrix(0.06172839506172839,0,0,0.06172839506172839,59.197530864197525,0)" xlink:href="#aL"/><use transform="matrix(0.06172839506172839,0,0,0.06172839506172839,66.5432098765432,0)" xlink:href="#aM"/></g><path fill="#333" d="M33 0v-38h34V0H33" id="bf"/><g id="H"><use transform="matrix(0.05555555555555554,0,0,0.05555555555555554,0,0)" xlink:href="#ah"/><use transform="matrix(0.05555555555555554,0,0,0.05555555555555554,9.999999999999996,0)" xlink:href="#ag"/><use transform="matrix(0.05555555555555554,0,0,0.05555555555555554,21.111111111111104,0)" xlink:href="#aF"/><use transform="matrix(0.05555555555555554,0,0,0.05555555555555554,32.222222222222214,0)" xlink:href="#aF"/><use transform="matrix(0.05555555555555554,0,0,0.05555555555555554,43.33333333333332,0)" xlink:href="#R"/><use transform="matrix(0.05555555555555554,0,0,0.05555555555555554,54.44444444444443,0)" xlink:href="#ah"/><use transform="matrix(0.05555555555555554,0,0,0.05555555555555554,64.44444444444443,0)" xlink:href="#O"/><use transform="matrix(0.05555555555555554,0,0,0.05555555555555554,69.99999999999999,0)" xlink:href="#ag"/><use transform="matrix(0.05555555555555554,0,0,0.05555555555555554,81.11111111111109,0)" xlink:href="#P"/><use transform="matrix(0.05555555555555554,0,0,0.05555555555555554,86.61111111111109,0)" xlink:href="#bf"/><use transform="matrix(0.05555555555555554,0,0,0.05555555555555554,92.16666666666664,0)" xlink:href="#ah"/><use transform="matrix(0.05555555555555554,0,0,0.05555555555555554,102.16666666666664,0)" xlink:href="#ag"/><use transform="matrix(0.05555555555555554,0,0,0.05555555555555554,113.27777777777774,0)" xlink:href="#aF"/><use transform="matrix(0.05555555555555554,0,0,0.05555555555555554,124.38888888888886,0)" xlink:href="#aF"/><use transform="matrix(0.05555555555555554,0,0,0.05555555555555554,135.49999999999997,0)" xlink:href="#R"/><use transform="matrix(0.05555555555555554,0,0,0.05555555555555554,146.6111111111111,0)" xlink:href="#ah"/><use transform="matrix(0.05555555555555554,0,0,0.05555555555555554,156.6111111111111,0)" xlink:href="#O"/><use transform="matrix(0.05555555555555554,0,0,0.05555555555555554,162.16666666666663,0)" xlink:href="#aL"/><use transform="matrix(0.05555555555555554,0,0,0.05555555555555554,168.77777777777774,0)" xlink:href="#aM"/></g><path fill="#333" d="M187 0l-14-72H61L19 0h-37l149-248h38L221 0h-34zm-19-99l-22-123L76-99h92" id="bg"/><path fill="#333" d="M67 3c-93-2-31-127-26-193h32L48-50c-3 39 53 32 70 12 30-34 30-101 43-152h32L157 0h-30c1-10 6-24 4-33-14 20-29 37-64 36" id="bh"/><g id="I"><use transform="matrix(0.06172839506172839,0,0,0.06172839506172839,0,0)" xlink:href="#bg"/><use transform="matrix(0.06172839506172839,0,0,0.06172839506172839,14.814814814814813,0)" xlink:href="#Y"/><use transform="matrix(0.06172839506172839,0,0,0.06172839506172839,25.925925925925924,0)" xlink:href="#ac"/><use transform="matrix(0.06172839506172839,0,0,0.06172839506172839,32.098765432098766,0)" xlink:href="#bh"/><use transform="matrix(0.06172839506172839,0,0,0.06172839506172839,44.44444444444444,0)" xlink:href="#as"/><use transform="matrix(0.06172839506172839,0,0,0.06172839506172839,56.79012345679012,0)" xlink:href="#ac"/><use transform="matrix(0.06172839506172839,0,0,0.06172839506172839,62.96296296296296,0)" xlink:href="#aa"/><use transform="matrix(0.06172839506172839,0,0,0.06172839506172839,75.30864197530865,0)" xlink:href="#ad"/><use transform="matrix(0.06172839506172839,0,0,0.06172839506172839,82.65432098765433,0)" xlink:href="#U"/><use transform="matrix(0.06172839506172839,0,0,0.06172839506172839,98.64197530864199,0)" xlink:href="#V"/><use transform="matrix(0.06172839506172839,0,0,0.06172839506172839,110.98765432098767,0)" xlink:href="#W"/><use transform="matrix(0.06172839506172839,0,0,0.06172839506172839,122.09876543209879,0)" xlink:href="#X"/><use transform="matrix(0.06172839506172839,0,0,0.06172839506172839,126.97530864197533,0)" xlink:href="#Y"/><use transform="matrix(0.06172839506172839,0,0,0.06172839506172839,138.08641975308643,0)" xlink:href="#V"/><use transform="matrix(0.06172839506172839,0,0,0.06172839506172839,150.4320987654321,0)" xlink:href="#Z"/><use transform="matrix(0.06172839506172839,0,0,0.06172839506172839,166.41975308641975,0)" xlink:href="#aa"/><use transform="matrix(0.06172839506172839,0,0,0.06172839506172839,178.76543209876542,0)" xlink:href="#ab"/><use transform="matrix(0.06172839506172839,0,0,0.06172839506172839,191.1111111111111,0)" xlink:href="#ab"/><use transform="matrix(0.06172839506172839,0,0,0.06172839506172839,203.45679012345676,0)" xlink:href="#V"/><use transform="matrix(0.06172839506172839,0,0,0.06172839506172839,215.80246913580243,0)" xlink:href="#Y"/><use transform="matrix(0.06172839506172839,0,0,0.06172839506172839,226.91358024691354,0)" xlink:href="#ac"/><use transform="matrix(0.06172839506172839,0,0,0.06172839506172839,233.08641975308637,0)" xlink:href="#aa"/><use transform="matrix(0.06172839506172839,0,0,0.06172839506172839,245.43209876543204,0)" xlink:href="#ad"/></g><use transform="matrix(0.06172839506172839,0,0,0.06172839506172839,0,0)" xlink:href="#am" id="J"/><g id="K"><use transform="matrix(0.06172839506172839,0,0,0.06172839506172839,0,0)" xlink:href="#as"/><use transform="matrix(0.06172839506172839,0,0,0.06172839506172839,12.345679012345679,0)" xlink:href="#Y"/><use transform="matrix(0.06172839506172839,0,0,0.06172839506172839,23.45679012345679,0)" xlink:href="#ac"/><use transform="matrix(0.06172839506172839,0,0,0.06172839506172839,29.62962962962963,0)" xlink:href="#X"/><use transform="matrix(0.06172839506172839,0,0,0.06172839506172839,34.50617283950617,0)" xlink:href="#aa"/><use transform="matrix(0.06172839506172839,0,0,0.06172839506172839,46.85185185185185,0)" xlink:href="#ab"/><use transform="matrix(0.06172839506172839,0,0,0.06172839506172839,59.197530864197525,0)" xlink:href="#an"/><use transform="matrix(0.06172839506172839,0,0,0.06172839506172839,66.5432098765432,0)" xlink:href="#ao"/></g><g id="L"><use transform="matrix(0.06172839506172839,0,0,0.06172839506172839,0,0)" xlink:href="#az"/><use transform="matrix(0.06172839506172839,0,0,0.06172839506172839,14.814814814814813,0)" xlink:href="#Q"/><use transform="matrix(0.06172839506172839,0,0,0.06172839506172839,27.160493827160494,0)" xlink:href="#al"/><use transform="matrix(0.06172839506172839,0,0,0.06172839506172839,38.27160493827161,0)" xlink:href="#ak"/><use transform="matrix(0.06172839506172839,0,0,0.06172839506172839,43.14814814814815,0)" xlink:href="#ah"/><use transform="matrix(0.06172839506172839,0,0,0.06172839506172839,54.25925925925927,0)" xlink:href="#aA"/><use transform="matrix(0.06172839506172839,0,0,0.06172839506172839,66.60493827160495,0)" xlink:href="#ak"/><use transform="matrix(0.06172839506172839,0,0,0.06172839506172839,71.4814814814815,0)" xlink:href="#S"/><use transform="matrix(0.06172839506172839,0,0,0.06172839506172839,83.82716049382718,0)" xlink:href="#aB"/><use transform="matrix(0.06172839506172839,0,0,0.06172839506172839,96.17283950617286,0)" xlink:href="#O"/><use transform="matrix(0.06172839506172839,0,0,0.06172839506172839,102.3456790123457,0)" xlink:href="#aS"/><use transform="matrix(0.06172839506172839,0,0,0.06172839506172839,117.16049382716051,0)" xlink:href="#ak"/><use transform="matrix(0.06172839506172839,0,0,0.06172839506172839,122.03703703703705,0)" xlink:href="#aE"/><use transform="matrix(0.06172839506172839,0,0,0.06172839506172839,138.0246913580247,0)" xlink:href="#ag"/><use transform="matrix(0.06172839506172839,0,0,0.06172839506172839,150.37037037037038,0)" xlink:href="#aF"/><use transform="matrix(0.06172839506172839,0,0,0.06172839506172839,162.71604938271605,0)" xlink:href="#aF"/><use transform="matrix(0.06172839506172839,0,0,0.06172839506172839,175.06172839506172,0)" xlink:href="#R"/><use transform="matrix(0.06172839506172839,0,0,0.06172839506172839,187.4074074074074,0)" xlink:href="#ah"/><use transform="matrix(0.06172839506172839,0,0,0.06172839506172839,198.5185185185185,0)" xlink:href="#O"/><use transform="matrix(0.06172839506172839,0,0,0.06172839506172839,204.69135802469134,0)" xlink:href="#ag"/><use transform="matrix(0.06172839506172839,0,0,0.06172839506172839,217.037037037037,0)" xlink:href="#P"/></g><g id="M"><use transform="matrix(0.05555555555555554,0,0,0.05555555555555554,0,0)" xlink:href="#ah"/><use transform="matrix(0.05555555555555554,0,0,0.05555555555555554,9.999999999999996,0)" xlink:href="#ag"/><use transform="matrix(0.05555555555555554,0,0,0.05555555555555554,21.111111111111104,0)" xlink:href="#aF"/><use transform="matrix(0.05555555555555554,0,0,0.05555555555555554,32.222222222222214,0)" xlink:href="#aF"/><use transform="matrix(0.05555555555555554,0,0,0.05555555555555554,43.33333333333332,0)" xlink:href="#R"/><use transform="matrix(0.05555555555555554,0,0,0.05555555555555554,54.44444444444443,0)" xlink:href="#ah"/><use transform="matrix(0.05555555555555554,0,0,0.05555555555555554,64.44444444444443,0)" xlink:href="#O"/><use transform="matrix(0.05555555555555554,0,0,0.05555555555555554,69.99999999999999,0)" xlink:href="#ag"/><use transform="matrix(0.05555555555555554,0,0,0.05555555555555554,81.11111111111109,0)" xlink:href="#P"/><use transform="matrix(0.05555555555555554,0,0,0.05555555555555554,86.61111111111109,0)" xlink:href="#bf"/><use transform="matrix(0.05555555555555554,0,0,0.05555555555555554,92.16666666666664,0)" xlink:href="#aN"/><use transform="matrix(0.05555555555555554,0,0,0.05555555555555554,103.27777777777774,0)" xlink:href="#ak"/><use transform="matrix(0.05555555555555554,0,0,0.05555555555555554,107.66666666666663,0)" xlink:href="#al"/><use transform="matrix(0.05555555555555554,0,0,0.05555555555555554,117.66666666666663,0)" xlink:href="#ah"/><use transform="matrix(0.05555555555555554,0,0,0.05555555555555554,127.66666666666663,0)" xlink:href="#ag"/><use transform="matrix(0.05555555555555554,0,0,0.05555555555555554,138.77777777777774,0)" xlink:href="#aF"/><use transform="matrix(0.05555555555555554,0,0,0.05555555555555554,149.88888888888886,0)" xlink:href="#aF"/><use transform="matrix(0.05555555555555554,0,0,0.05555555555555554,160.99999999999997,0)" xlink:href="#R"/><use transform="matrix(0.05555555555555554,0,0,0.05555555555555554,172.1111111111111,0)" xlink:href="#ah"/><use transform="matrix(0.05555555555555554,0,0,0.05555555555555554,182.1111111111111,0)" xlink:href="#O"/><use transform="matrix(0.05555555555555554,0,0,0.05555555555555554,187.66666666666663,0)" xlink:href="#aL"/><use transform="matrix(0.05555555555555554,0,0,0.05555555555555554,194.27777777777774,0)" xlink:href="#aM"/></g></defs></g></svg>